<?xml version="1.0" encoding="utf-8"?>
<!-- Generator: Adobe Illustrator 15.0.0, SVG Export Plug-In . SVG Version: 6.00 Build 0)  -->
<!DOCTYPE svg PUBLIC "-//W3C//DTD SVG 1.1//EN" "http://www.w3.org/Graphics/SVG/1.1/DTD/svg11.dtd">
<svg version="1.1" id="Layer_1" xmlns="http://www.w3.org/2000/svg" xmlns:xlink="http://www.w3.org/1999/xlink" x="0px" y="0px"
	 width="150px" height="237px" viewBox="0 0 150 237" enable-background="new 0 0 150 237" xml:space="preserve">
<g>
	<g>
		<g>
			<path fill-rule="evenodd" clip-rule="evenodd" fill="#BB161A" d="M104.385,82.175c-7.315-8.893-18.17-13.997-29.78-13.997
				c-0.428,0-0.859,0.009-1.266,0.025c-12.322,0.405-23.764,7.45-30.606,18.84c-6.745,11.232-7.879,24.749-3.116,37.083
				c2.904,7.506,7.488,14.377,12.346,21.65c3.139,4.697,6.376,9.552,9.205,14.689c1.413,2.567,2.742,5.235,4.037,8.051
				c6.423,0.451,13.063,1.384,19.501,0.942c1.985-4.221,4.225-8.528,6.87-13.184c2.186-3.845,4.725-7.618,7.189-11.267
				c6.304-9.394,12.825-19.106,14.206-31.101C114.373,101.671,111.389,90.698,104.385,82.175z"/>
		</g>
		<g>
			<path fill-rule="evenodd" clip-rule="evenodd" fill="#FF0000" d="M65.206,168.516c0.867,1.912,1.72,3.894,2.56,5.963
				c2.531,6.289,4.658,14.271,6.68,22.002c0.289,1.011,0.541,2.012,0.805,2.992c1.71-8.004,3.901-16.861,6.522-23.279
				c0.92-2.246,1.89-4.478,2.935-6.736C78.269,169.899,71.629,168.966,65.206,168.516z"/>
		</g>
		<g>
			<polygon fill="#231F20" points="74.61,65.887 74.61,65.887 74.61,65.887 			"/>
		</g>
		<g>
			<path fill="#231F20" d="M79.801,175.27c-1.762,4.348-3.344,9.755-4.709,15.27c-1.647-6.049-3.362-12.004-5.369-16.973
				c-0.683-1.674-1.365-3.289-2.063-4.861c-1.619-0.136-3.225-0.259-4.812-0.332c1.587,0.073,3.193,0.196,4.812,0.332
				c-1.482-3.317-3.011-6.43-4.655-9.409c-2.871-5.225-6.141-10.122-9.308-14.858c-4.782-7.166-9.302-13.931-12.106-21.19
				c-4.493-11.627-3.422-24.371,2.941-34.958c6.457-10.762,17.258-17.412,28.873-17.797c0.396-0.012,0.802-0.017,1.201-0.017
				l0.004-4.59h-0.005c-0.457,0-0.884,0.007-1.342,0.017c-26.661,0.883-46.586,30.712-35.615,59.105
				c4.933,12.768,14.619,23.785,21.682,36.626c2.466,4.482,4.579,9.068,6.478,13.761c2.729,6.782,5.003,15.741,7.23,24.077
				c0.846,3.214,3.722,3.146,4.417,0c1.719-8.088,3.832-16.368,6.254-22.355c1.102-2.696,2.298-5.324,3.514-7.913
				c-1.614,0.214-3.281,0.322-4.93,0.354C81.4,171.466,80.583,173.363,79.801,175.27z"/>
		</g>
		<g>
			<path fill="#231F20" d="M74.61,65.887v4.59c5.35,0,10.726,1.202,15.586,3.474c4.868,2.274,9.202,5.644,12.591,9.745
				c6.584,8.017,9.385,18.367,8.068,29.933c-1.304,11.404-7.389,20.455-13.826,30.034c-2.467,3.684-5.037,7.493-7.277,11.413
				c-2.917,5.126-5.346,9.842-7.459,14.483c1.648-0.031,3.315-0.14,4.93-0.354c1.911-3.97,3.969-7.85,6.18-11.732
				c7.8-13.682,19.698-25.921,21.688-43.285C118.42,84.926,97.281,65.887,74.61,65.887z"/>
		</g>
	</g>
	<g>
		<path fill="#231F20" d="M104.749,170.704H44.716c-7.484,0-13.577-5.51-13.577-12.282v-0.729c0-4.132,2.235-7.874,5.884-10.127
			c-3.424-5.405-7.042-11.642-9.622-18.321c-5.638-14.589-5.153-30.355,1.36-44.396c5.901-12.716,16.223-22.62,28.504-27.426
			c-0.015-0.279-0.023-0.564-0.023-0.838c0-10.271,7.848-18.627,17.505-18.627c9.645,0,17.492,8.356,17.492,18.627
			c0,0.236-0.006,0.472-0.019,0.715c10.479,3.81,19.499,10.922,25.572,20.203c7.027,10.741,9.88,23.883,8.269,38.008
			c-1.48,12.965-7.312,23.507-13.038,32.442c3.284,2.297,5.301,5.898,5.301,9.74v0.729
			C118.325,165.194,112.25,170.704,104.749,170.704z M74.748,42.76c-7.015,0-12.702,6.192-12.702,13.824
			c0,0.708,0.05,1.419,0.149,2.121l0.267,1.957l-1.867,0.647C48.767,65.4,38.751,74.717,33.116,86.869
			c-5.962,12.846-6.4,27.283-1.239,40.646c2.796,7.23,6.944,14.026,10.639,19.72l1.641,2.537l-2.84,1.025
			c-3.269,1.178-5.379,3.884-5.379,6.895v0.729c0,4.127,3.938,7.484,8.779,7.484h60.033c4.845,0,8.787-3.357,8.787-7.484v-0.729
			c0-2.844-1.863-5.409-4.87-6.694l-2.628-1.125l1.58-2.395c7.251-11.071,12.345-20.838,13.685-32.514
			c3.286-28.851-13.88-47.767-32.37-53.715l-1.911-0.621l0.273-1.985c0.092-0.692,0.13-1.391,0.13-2.06
			C87.424,48.953,81.734,42.76,74.748,42.76z"/>
	</g>
	<g>
		<path fill-rule="evenodd" clip-rule="evenodd" fill="#FFFFFF" d="M89.62,106.933c0,8.215-6.664,14.871-14.872,14.871
			c-8.223,0-14.875-6.656-14.875-14.871s6.652-14.87,14.875-14.87C82.953,92.063,89.62,98.718,89.62,106.933z"/>
		<path fill="#231F20" d="M74.748,124.683c-9.79,0-17.758-7.963-17.758-17.75c0-9.786,7.968-17.749,17.758-17.749
			c9.771,0,17.738,7.962,17.738,17.749C92.486,116.72,84.518,124.683,74.748,124.683z M74.748,94.94
			c-6.615,0-11.997,5.38-11.997,11.993c0,6.614,5.382,11.992,11.997,11.992c6.61,0,11.974-5.378,11.974-11.992
			C86.721,100.321,81.358,94.94,74.748,94.94z"/>
	</g>
</g>
</svg>
