<?xml version="1.0" encoding="utf-8"?>
<!-- Generator: Adobe Illustrator 15.0.0, SVG Export Plug-In . SVG Version: 6.00 Build 0)  -->
<!DOCTYPE svg PUBLIC "-//W3C//DTD SVG 1.1//EN" "http://www.w3.org/Graphics/SVG/1.1/DTD/svg11.dtd">
<svg version="1.1" id="Layer_1" xmlns="http://www.w3.org/2000/svg" xmlns:xlink="http://www.w3.org/1999/xlink" x="0px" y="0px"
	 width="150px" height="237px" viewBox="0 0 150 237" enable-background="new 0 0 150 237" xml:space="preserve">
<g>
	<g>
		<g>
			<path fill="#BB161A" d="M109.764,75.268c-8.653-10.52-21.496-16.559-35.23-16.559c-0.507,0-1.016,0.011-1.498,0.03
				c-14.577,0.479-28.113,8.813-36.208,22.288c-7.979,13.288-9.321,29.279-3.686,43.871c3.435,8.879,8.858,17.008,14.605,25.611
				c3.714,5.558,7.543,11.302,10.89,17.379c1.671,3.037,3.244,6.193,4.776,9.524c7.599,0.533,15.454,1.638,23.071,1.114
				c2.349-4.994,4.999-10.089,8.127-15.598c2.586-4.549,5.59-9.012,8.506-13.329c7.456-11.112,15.171-22.604,16.805-36.793
				C121.58,98.333,118.05,85.352,109.764,75.268z"/>
		</g>
		<g>
			<path fill="#FF0000" d="M63.414,177.413c1.026,2.262,2.035,4.606,3.029,7.054c2.994,7.44,5.51,16.884,7.902,26.029
				c0.342,1.197,0.64,2.381,0.953,3.54c2.023-9.469,4.616-19.947,7.716-27.54c1.088-2.656,2.235-5.298,3.472-7.969
				C78.868,179.049,71.012,177.945,63.414,177.413z"/>
		</g>
		<g>
			<path fill="#231F20" d="M74.539,56L74.539,56L74.539,56z"/>
		</g>
		<g>
			<path fill="#231F20" d="M80.68,185.402c-2.084,5.145-3.956,11.542-5.571,18.066c-1.948-7.156-3.977-14.201-6.351-20.081
				c-0.809-1.979-1.615-3.891-2.441-5.75c-1.916-0.16-3.815-0.306-5.693-0.393c1.877,0.087,3.777,0.232,5.693,0.393
				c-1.753-3.925-3.562-7.607-5.507-11.131c-3.396-6.182-7.265-11.976-11.012-17.577c-5.657-8.478-11.004-16.481-14.322-25.069
				c-5.315-13.755-4.048-28.832,3.48-41.356c7.638-12.731,20.417-20.599,34.157-21.054c0.468-0.015,0.949-0.021,1.421-0.021
				L74.539,56h-0.006c-0.541,0-1.046,0.008-1.587,0.02c-31.542,1.044-55.114,36.333-42.134,69.923
				c5.836,15.105,17.295,28.139,25.651,43.33c2.917,5.303,5.417,10.729,7.664,16.28c3.229,8.022,5.918,18.621,8.553,28.483
				c1,3.803,4.403,3.723,5.225,0c2.034-9.568,4.534-19.363,7.399-26.446c1.303-3.189,2.718-6.299,4.156-9.361
				c-1.908,0.253-3.882,0.381-5.832,0.418C82.572,180.902,81.605,183.147,80.68,185.402z"/>
		</g>
		<g>
			<path fill="#231F20" d="M74.539,56v5.43c6.329,0,12.689,1.422,18.438,4.11c5.761,2.69,10.888,6.677,14.896,11.528
				c7.79,9.485,11.104,21.729,9.546,35.412c-1.544,13.492-8.742,24.199-16.357,35.531c-2.918,4.359-5.959,8.865-8.609,13.503
				c-3.45,6.063-6.324,11.643-8.824,17.133c1.95-0.037,3.921-0.165,5.832-0.418c2.261-4.697,4.695-9.287,7.312-13.88
				c9.229-16.187,23.305-30.666,25.658-51.208C126.368,78.522,101.36,56,74.539,56z"/>
		</g>
	</g>
	<g>
		<path fill="#231F20" d="M110.194,180.002H39.173c-8.854,0-16.062-6.52-16.062-14.53v-0.862c0-4.889,2.644-9.316,6.961-11.98
			c-4.051-6.395-8.331-13.773-11.383-21.675c-6.67-17.259-6.096-35.911,1.609-52.522C27.279,63.388,39.49,51.671,54.02,45.986
			c-0.018-0.33-0.027-0.667-0.027-0.991c0-12.151,9.284-22.037,20.709-22.037c11.411,0,20.693,9.885,20.693,22.037
			c0,0.279-0.008,0.559-0.021,0.845c12.396,4.508,23.067,12.922,30.252,23.901c8.312,12.707,11.688,28.254,9.782,44.965
			c-1.751,15.339-8.65,27.81-15.424,38.38c3.884,2.718,6.271,6.979,6.271,11.523v0.862
			C126.256,173.482,119.068,180.002,110.194,180.002z M74.702,28.639c-8.299,0-15.027,7.326-15.027,16.354
			c0,0.838,0.059,1.679,0.176,2.509l0.316,2.315l-2.208,0.765c-13.993,4.84-25.843,15.862-32.509,30.239
			c-7.054,15.197-7.572,32.276-1.466,48.086c3.308,8.553,8.215,16.593,12.586,23.328l1.941,3.001l-3.36,1.214
			c-3.867,1.393-6.363,4.596-6.363,8.156v0.863c0,4.882,4.659,8.854,10.386,8.854h71.021c5.733,0,10.396-3.972,10.396-8.854v-0.863
			c0-3.364-2.204-6.398-5.761-7.919l-3.109-1.331l1.869-2.832c8.578-13.099,14.604-24.652,16.19-38.466
			c3.887-34.132-16.421-56.51-38.296-63.547l-2.26-0.735l0.322-2.348c0.109-0.818,0.153-1.646,0.153-2.437
			C89.698,35.966,82.968,28.639,74.702,28.639z"/>
	</g>
	<g>
		<path opacity="0.7" fill="#FFFFFF" d="M92.297,104.558c0,9.719-7.884,17.593-17.595,17.593c-9.728,0-17.598-7.875-17.598-17.593
			c0-9.719,7.87-17.592,17.598-17.592C84.409,86.966,92.297,94.839,92.297,104.558z"/>
		<path fill="#231F20" d="M74.702,125.558c-11.582,0-21.008-9.421-21.008-21c0-11.577,9.426-20.998,21.008-20.998
			c11.561,0,20.985,9.419,20.985,20.998C95.688,116.136,86.26,125.558,74.702,125.558z M74.702,90.37
			c-7.826,0-14.193,6.365-14.193,14.188c0,7.824,6.367,14.187,14.193,14.187c7.819,0,14.167-6.362,14.167-14.187
			C88.866,96.735,82.521,90.37,74.702,90.37z"/>
	</g>
</g>
<path opacity="0.15" fill="#FFFFFF" d="M74.233,28.637c-8.299,0-15.027,7.325-15.027,16.354c0,0.838,0.059,1.679,0.176,2.51
	l0.316,2.314l-2.208,0.766c-13.993,4.84-25.843,15.861-32.509,30.238c-7.054,15.197-7.572,32.277-1.466,48.086
	c3.308,8.553,8.215,16.594,12.586,23.328l1.941,3.002l-3.36,1.213c-3.867,1.393-6.363,4.596-6.363,8.156v0.863
	c0,4.883,4.659,8.854,10.386,8.854h71.021c5.733,0,10.396-3.971,10.396-8.854v-0.863c0-3.363-2.204-6.398-5.761-7.918l-3.109-1.332
	l1.869-2.832c8.578-13.098,14.604-24.652,16.19-38.465c3.887-34.133-16.421-56.51-38.296-63.547l-2.26-0.735l0.322-2.349
	c0.109-0.818,0.153-1.645,0.153-2.437C89.229,35.964,82.499,28.637,74.233,28.637z"/>
</svg>
